<?xml version="1.0" encoding="UTF-8" standalone="no"?>
<svg width="75px" height="63px" viewBox="0 0 75 63" version="1.1" xmlns="http://www.w3.org/2000/svg" xmlns:xlink="http://www.w3.org/1999/xlink" xmlns:sketch="http://www.bohemiancoding.com/sketch/ns">
    <!-- Generator: Sketch 3.3.3 (12072) - http://www.bohemiancoding.com/sketch -->
    <title>ic_content</title>
    <desc>Created with Sketch.</desc>
    <defs></defs>
    <g id="Features" stroke="none" stroke-width="1" fill="none" fill-rule="evenodd" sketch:type="MSPage">
        <g id="Desktop" sketch:type="MSArtboardGroup" transform="translate(-615.000000, -292.000000)" fill="#8AC24A">
            <g id="Icons" sketch:type="MSLayerGroup" transform="translate(76.000000, 277.000000)">
                <g id="ic_content" transform="translate(539.000000, 15.000000)" sketch:type="MSShapeGroup">
                    <path d="M73.803,21.724 C72.915,20.472 71.419,19.755 69.698,19.755 L63.15,19.755 L63.15,12.633 C63.15,9.888 60.917,7.655 58.172,7.655 L35.216,7.655 C34.24,7.655 32.716,6.882 32.14,6.093 L30.421,3.743 C29.081,1.91 26.358,0.527 24.086,0.527 L16.132,0.527 C13.632,0.527 11.117,2.305 10.283,4.663 L9.736,6.21 C9.478,6.939 8.466,7.655 7.693,7.655 L5.308,7.655 C2.563,7.655 0.33,9.888 0.33,12.633 L0.33,57.583 C0.33,57.821 0.374,58.048 0.449,58.261 C0.49,59.15 0.767,59.989 1.271,60.699 C2.159,61.951 3.655,62.669 5.375,62.669 L56.087,62.669 C59.153,62.669 62.348,60.402 63.361,57.508 L74.305,26.248 C74.874,24.624 74.691,22.975 73.803,21.724 L73.803,21.724 Z M5.308,11.691 L7.693,11.691 C10.193,11.691 12.708,9.913 13.541,7.555 L14.088,6.008 C14.346,5.279 15.358,4.563 16.132,4.563 L24.086,4.563 C25.063,4.563 26.587,5.337 27.163,6.125 L28.881,8.475 C30.222,10.308 32.945,11.691 35.216,11.691 L58.172,11.691 C58.683,11.691 59.114,12.122 59.114,12.633 L59.114,19.755 L18.986,19.755 C15.92,19.755 12.725,22.021 11.712,24.915 L4.366,45.899 L4.366,12.633 C4.366,12.122 4.797,11.691 5.308,11.691 L5.308,11.691 Z M70.496,24.915 L59.552,56.175 C59.101,57.461 57.45,58.633 56.087,58.633 L5.375,58.633 C4.986,58.633 4.682,58.532 4.563,58.364 C4.443,58.196 4.449,57.876 4.578,57.508 L15.522,26.248 C15.972,24.962 17.624,23.79 18.987,23.79 L69.699,23.79 C70.088,23.79 70.392,23.891 70.511,24.059 C70.63,24.227 70.625,24.547 70.496,24.915 L70.496,24.915 Z" id="Fill-7"></path>
                </g>
            </g>
        </g>
    </g>
</svg>