<?xml version="1.0" encoding="UTF-8" standalone="no"?>
<svg width="97px" height="24px" viewBox="0 0 97 24" version="1.1" xmlns="http://www.w3.org/2000/svg" xmlns:xlink="http://www.w3.org/1999/xlink" xmlns:sketch="http://www.bohemiancoding.com/sketch/ns">
    <!-- Generator: Sketch 3.3.3 (12072) - http://www.bohemiancoding.com/sketch -->
    <title>Imported Layers Copy</title>
    <desc>Created with Sketch.</desc>
    <defs></defs>
    <g id="Landing-Page" stroke="none" stroke-width="1" fill="none" fill-rule="evenodd" sketch:type="MSPage">
        <g id="Desktop" sketch:type="MSArtboardGroup" transform="translate(-35.000000, -22.000000)">
            <g id="Group" sketch:type="MSLayerGroup">
                <g id="Imported-Layers-Copy" transform="translate(35.000000, 22.000000)" sketch:type="MSShapeGroup">
                    <path d="M12.468,9.433 C11.281,10.382 10.081,11.594 8.697,12.254 C9.619,11.331 9.046,9.767 10.564,9.116 C11.323,8.841 12.135,8.655 12.856,8.305 C13.615,7.936 14.915,7.006 15.218,7.107 C14.076,10.405 11.753,12.493 8.133,12.606 C12.54,10.373 13.034,9.608 14.971,7.389 L12.468,9.433" id="Fill-1" fill="#E85D21"></path>
                    <path d="M9.647,14.797 C8.845,14.142 8.183,13.314 8.044,12.253 C7.876,10.965 8.265,9.581 8.519,8.33 C8.647,7.696 8.618,7.06 8.705,6.42 C8.759,6.024 8.984,5.628 9.01,5.229 C9.01,5.131 9.329,5.032 9.329,5.15 C9.4,6.498 9.325,7.782 9.054,9.098 C8.814,10.263 8.446,11.621 8.916,12.773 C9.296,13.704 10.21,14.349 10.944,14.993 C11.681,15.642 12.366,16.394 12.702,17.363 C12.985,18.18 12.812,18.934 12.878,18.901 C13.718,17.968 14.749,17.856 15.84,17.358 C16.43,17.088 16.791,16.769 17.179,16.241 C17.444,15.88 17.583,15.315 18.139,15.315 C17.785,16.818 17.336,17.427 15.674,18.191 C14.395,18.779 13.604,18.809 12.741,20.111 C12.465,20.527 12.324,21.19 11.659,22.027 C11.195,22.61 10.968,22.914 10.39,23.376 L9.224,23.377 C9.831,22.908 11.102,21.836 11.59,20.763 C12.151,19.533 12.447,18.537 11.777,17.016 C11.429,16.226 10.059,15.153 9.647,14.797" id="Fill-2" fill="#E85D21"></path>
                    <path d="M20.64,15.052 C20.982,15.622 20.952,16.441 20.172,16.586 C19.53,16.705 18.962,16.107 18.546,15.715 C17.92,15.123 17.455,15.758 16.708,15.929 C16.113,16.065 15.55,15.813 15.524,15.144 C15.502,14.584 15.992,14.284 16.259,13.856 C16.342,13.725 15.467,12.855 15.373,12.671 C15.119,12.172 15.161,11.43 15.776,11.225 C16.413,11.026 16.917,11.554 17.45,11.784 C17.681,11.189 17.817,10.116 18.56,9.926 C19.679,9.641 19.904,11.037 19.893,11.801 C19.88,12.658 21.302,11.597 21.862,12.516 C22.215,13.095 21.751,13.507 21.294,13.812 C20.595,14.278 20.148,14.234 20.64,15.052" id="Fill-3" fill="#E41351"></path>
                    <path d="M20.231,13.836 C19.375,15.546 15.79,14.242 16.842,12.839 C17.569,11.75 20.928,12.44 20.231,13.836" id="Fill-4" fill="#FFDC00"></path>
                    <path d="M8.26,12.247 C6.782,10.785 4.981,9.255 1.149,8.144 C3.684,9.297 5.406,10.392 7.782,11.848 C6.233,11.626 5.204,12.49 3.894,11.197 C2.664,9.982 1.81,8.796 0.288,7.901 C3.314,7.901 7.362,8.703 8.26,12.247" id="Fill-5" fill="#E85D21"></path>
                    <path d="M15.365,17.822 C15.275,16.994 14.374,15.385 11.588,14.086 C13.024,15.16 14.509,16.105 15.295,17.673 C12.706,17.673 12.722,15.343 11.229,13.767 C12.706,14.044 16.214,15.894 15.365,17.822" id="Fill-6" fill="#E85D21"></path>
                    <path d="M16.352,17.642 C18.841,17.974 21.065,17.792 22.451,20.432 C20.212,18.926 20.032,19.016 16.711,18.04 C18.495,18.714 19.64,19.174 22.013,20.193 C20.706,20.193 19.921,20.922 18.744,19.874 C17.826,19.148 17.027,18.159 15.833,17.881 C16.006,17.801 16.179,17.722 16.352,17.642" id="Fill-7" fill="#E85D21"></path>
                    <path d="M9.934,1.792 C10.247,3.016 11.316,1.341 12.124,2.159 C12.967,3.013 11.634,4.091 10.951,4.526 C12.422,5.302 12.164,7.554 10.261,6.735 C9.805,6.538 9.217,5.913 8.799,6.314 C8.309,6.672 7.697,7.217 7.04,7.165 C6.373,7.113 6.126,6.318 6.339,5.766 C6.793,4.591 6.56,4.988 5.726,4.204 C5.318,3.821 5.001,3.237 5.289,2.688 C5.795,1.73 6.753,2.586 7.487,2.497 C7.501,1.815 7.417,0.72 8.151,0.348 C9.179,-0.172 9.733,1.003 9.934,1.792" id="Fill-8" fill="#E41351"></path>
                    <path d="M10.517,4.307 C9.523,6.192 5.765,4.8 7.105,3.516 C7.877,2.484 11.349,2.731 10.517,4.307" id="Fill-9" fill="#FFDC00"></path>
                    <path d="M44.618,23.354 L39.204,23.354 L37.357,15.074 L37.357,23.354 L32.484,23.354 L32.484,1.061 L37.357,1.061 L37.357,8.513 L39.522,1.061 L44.045,1.061 L41.051,11.239 L44.618,23.354" id="Fill-10" fill="#E41351"></path>
                    <path d="M55.7,19.947 C55.7,21.284 55.17,22.262 54.108,22.877 C53.259,23.365 52.049,23.609 50.477,23.609 C48.906,23.609 47.696,23.344 46.847,22.813 C45.828,22.176 45.318,21.168 45.318,19.788 L45.318,8.991 C45.318,7.633 45.817,6.635 46.815,5.998 C47.685,5.446 48.906,5.17 50.477,5.17 C52.027,5.17 53.237,5.414 54.108,5.902 C55.17,6.497 55.7,7.474 55.7,8.832 L55.7,15.711 L49.745,15.711 L49.745,19.889 C49.745,20.184 49.808,20.411 49.936,20.569 C50.063,20.727 50.255,20.806 50.51,20.806 C50.765,20.806 50.955,20.728 51.083,20.57 C51.21,20.412 51.273,20.185 51.273,19.89 L51.273,16.284 L55.7,16.284 L55.7,19.947 L55.7,19.947 Z M51.273,12.973 L51.273,8.858 C51.273,8.563 51.21,8.342 51.083,8.193 C50.955,8.047 50.765,7.972 50.51,7.972 C50.297,7.972 50.116,8.047 49.968,8.193 C49.819,8.342 49.745,8.563 49.745,8.858 L49.745,12.973 L51.273,12.973 L51.273,12.973 Z" id="Fill-11" fill="#E41351"></path>
                    <path d="M67.134,12.781 L62.707,12.781 L62.707,8.838 C62.707,8.282 62.452,8.004 61.942,8.004 C61.687,8.004 61.496,8.068 61.369,8.195 C61.242,8.323 61.178,8.525 61.178,8.802 L61.178,23.354 L56.751,23.354 L56.751,5.297 L61.178,5.297 L61.178,5.894 C61.433,5.684 61.799,5.511 62.276,5.375 C62.755,5.238 63.301,5.17 63.917,5.17 C64.85,5.17 65.621,5.42 66.225,5.918 C66.831,6.417 67.134,7.028 67.134,7.749 L67.134,12.781" id="Fill-12" fill="#E41351"></path>
                    <path d="M68.056,1.094 L72.484,1.094 L72.484,4.31 L68.056,4.31 L68.056,1.094 Z M68.056,5.297 L72.484,5.297 L72.484,23.355 L68.056,23.355 L68.056,5.297 Z" id="Fill-13" fill="#E41351"></path>
                    <path d="M85.668,23.354 L80.476,23.354 L77.737,16.826 L77.737,23.354 L73.31,23.354 L73.31,1.061 L77.737,1.061 L77.737,11.094 L80.03,5.297 L84.585,5.297 L81.4,13.215 L85.668,23.354" id="Fill-14" fill="#E41351"></path>
                    <path d="M96.814,23.354 L92.897,23.354 L92.897,22.654 C92.684,23.057 92.36,23.317 91.926,23.434 C91.49,23.551 90.869,23.609 90.062,23.609 C88.746,23.609 87.812,23.375 87.261,22.908 C86.708,22.441 86.433,21.73 86.433,20.774 L86.433,17.144 C86.433,15.701 87.425,14.501 89.41,13.546 C91.394,12.59 92.388,11.921 92.388,11.539 L92.388,8.864 C92.388,8.567 92.325,8.344 92.2,8.195 C92.075,8.047 91.889,7.972 91.64,7.972 C91.432,7.972 91.254,8.047 91.108,8.195 C90.964,8.344 90.891,8.567 90.891,8.864 L90.891,12.431 L86.592,12.431 L86.592,8.832 C86.592,7.495 87.133,6.518 88.216,5.902 C89.086,5.414 90.307,5.17 91.878,5.17 C93.449,5.17 94.627,5.435 95.413,5.966 C96.347,6.582 96.814,7.59 96.814,8.991 L96.814,23.354 L96.814,23.354 Z M92.388,19.978 L92.388,15.329 C91.793,15.477 91.39,15.658 91.178,15.87 C90.965,16.083 90.859,16.359 90.859,16.698 L90.859,19.978 C90.859,20.255 90.928,20.462 91.066,20.599 C91.204,20.738 91.4,20.806 91.655,20.806 C91.867,20.806 92.042,20.738 92.181,20.599 C92.318,20.462 92.388,20.255 92.388,19.978 L92.388,19.978 Z" id="Fill-15" fill="#E41351"></path>
                </g>
            </g>
        </g>
    </g>
</svg>