<?xml version="1.0" encoding="UTF-8" standalone="no"?>
<svg width="75px" height="80px" viewBox="0 0 75 80" version="1.1" xmlns="http://www.w3.org/2000/svg" xmlns:xlink="http://www.w3.org/1999/xlink" xmlns:sketch="http://www.bohemiancoding.com/sketch/ns">
    <!-- Generator: Sketch 3.3.3 (12072) - http://www.bohemiancoding.com/sketch -->
    <title>ic_ideas</title>
    <desc>Created with Sketch.</desc>
    <defs></defs>
    <g id="Features" stroke="none" stroke-width="1" fill="none" fill-rule="evenodd" sketch:type="MSPage">
        <g id="Desktop" sketch:type="MSArtboardGroup" transform="translate(-223.000000, -277.000000)" fill="#FFC007">
            <g id="Icons" sketch:type="MSLayerGroup" transform="translate(76.000000, 277.000000)">
                <g id="ic_ideas" transform="translate(147.000000, 0.000000)" sketch:type="MSShapeGroup">
                    <path d="M51.574,9.451 L53.693,5.89 C54.174,5.026 55.233,4.732 56.097,5.213 C56.96,5.694 57.254,6.754 56.773,7.617 L54.654,11.178 C54.37,11.757 53.693,12.042 53.114,12.042 C52.829,12.042 52.535,11.944 52.251,11.846 C51.378,11.374 51.093,10.324 51.574,9.451 L51.574,9.451 Z M20.423,11.187 C20.708,11.766 21.384,12.051 21.963,12.051 C22.248,12.051 22.542,11.953 22.827,11.855 C23.69,11.374 23.984,10.315 23.503,9.451 L21.384,5.89 C20.903,5.026 19.844,4.733 18.98,5.213 C18.117,5.694 17.823,6.754 18.304,7.617 L20.423,11.187 L20.423,11.187 Z M37.534,7.92 C38.496,7.92 39.261,7.154 39.261,6.193 L39.261,2.062 C39.261,1.1 38.496,0.334 37.534,0.334 C36.573,0.334 35.807,1.1 35.807,2.062 L35.807,6.193 C35.709,7.145 36.475,7.92 37.534,7.92 L37.534,7.92 Z M6.383,35.51 L2.252,35.51 C1.29,35.51 0.525,36.276 0.525,37.237 C0.525,38.199 1.29,38.964 2.252,38.964 L6.383,38.964 C7.344,38.964 8.11,38.199 8.11,37.237 C8.11,36.276 7.344,35.51 6.383,35.51 L6.383,35.51 Z M72.826,35.51 L68.695,35.51 C67.733,35.51 66.967,36.276 66.967,37.237 C66.967,38.199 67.733,38.964 68.695,38.964 L72.826,38.964 C73.787,38.964 74.553,38.199 74.553,37.237 C74.553,36.276 73.787,35.51 72.826,35.51 L72.826,35.51 Z M69.647,18.781 C69.166,17.918 68.107,17.624 67.243,18.105 L63.682,20.224 C62.819,20.704 62.525,21.764 63.006,22.627 C63.29,23.206 63.967,23.491 64.546,23.491 C64.831,23.491 65.125,23.393 65.409,23.295 L68.97,21.176 C69.843,20.704 70.128,19.645 69.647,18.781 L69.647,18.781 Z M60.228,37.05 C60.228,40.994 59.168,44.84 57.245,48.304 C57.147,48.589 57.049,48.784 56.862,48.98 L56.667,49.265 C55.901,50.423 55.126,51.571 54.165,52.533 C50.8,57.242 49.072,61.284 49.161,63.875 L49.161,63.973 C49.161,64.169 49.259,64.454 49.259,64.739 L49.259,73.01 C49.259,76.66 46.277,79.544 42.724,79.544 L32.059,79.544 C28.409,79.544 25.524,76.562 25.524,73.01 L25.524,64.739 L25.524,64.258 L25.524,63.875 C25.622,61.373 23.886,57.429 20.717,52.818 C19.657,51.66 18.598,50.414 17.832,48.972 C17.734,48.776 17.636,48.687 17.547,48.491 C15.526,45.028 14.467,41.084 14.467,37.148 C14.467,24.551 24.759,14.268 37.347,14.268 C49.936,14.17 60.228,24.453 60.228,37.05 L60.228,37.05 Z M29.076,68.967 L45.707,68.967 L45.707,65.699 L29.076,65.699 L29.076,68.967 Z M45.707,73.205 L45.707,72.529 L29.076,72.529 L29.076,73.205 C29.272,74.745 30.519,75.894 32.059,75.894 L42.733,75.894 C44.265,75.894 45.52,74.745 45.707,73.205 L45.707,73.205 Z M56.667,37.05 C56.667,26.376 48.013,17.722 37.338,17.722 C26.663,17.722 18.01,26.376 18.01,37.05 C18.01,40.514 18.971,43.879 20.699,46.861 C20.699,46.861 20.699,46.861 20.699,46.959 C21.464,48.206 22.337,49.363 23.298,50.423 C23.396,50.521 23.396,50.521 23.494,50.618 C26.663,55.141 28.497,58.987 28.978,62.157 L45.805,62.157 C46.384,58.213 49.072,53.699 51.476,50.333 C51.476,50.236 51.574,50.236 51.672,50.138 C52.536,49.274 53.31,48.215 53.88,47.155 C53.88,47.057 53.978,47.057 53.978,46.959 C53.978,46.861 54.076,46.861 54.076,46.763 C55.803,43.879 56.667,40.514 56.667,37.05 L56.667,37.05 Z M11.386,20.224 L7.825,18.105 C6.961,17.624 5.902,17.909 5.421,18.781 C4.94,19.645 5.225,20.704 6.098,21.185 L9.659,23.304 C9.944,23.5 10.238,23.5 10.523,23.5 C11.101,23.5 11.769,23.215 12.063,22.636 C12.535,21.764 12.25,20.704 11.386,20.224 L11.386,20.224 Z" id="Fill-14"></path>
                </g>
            </g>
        </g>
    </g>
</svg>