<?xml version="1.0" encoding="UTF-8" standalone="no"?>
<svg width="87px" height="88px" viewBox="0 0 87 88" version="1.1" xmlns="http://www.w3.org/2000/svg" xmlns:xlink="http://www.w3.org/1999/xlink" xmlns:sketch="http://www.bohemiancoding.com/sketch/ns">
    <!-- Generator: Sketch 3.3.3 (12072) - http://www.bohemiancoding.com/sketch -->
    <title>ic_people</title>
    <desc>Created with Sketch.</desc>
    <defs></defs>
    <g id="Features" stroke="none" stroke-width="1" fill="none" fill-rule="evenodd" sketch:type="MSPage">
        <g id="Desktop" sketch:type="MSArtboardGroup" transform="translate(-76.000000, -284.000000)" fill="#2195F2">
            <g id="Icons" sketch:type="MSLayerGroup" transform="translate(76.000000, 277.000000)">
                <g id="ic_people" transform="translate(0.000000, 7.000000)" sketch:type="MSShapeGroup">
                    <path d="M46.995,87.652 L39.794,87.652 C37.24,87.652 35.113,85.681 34.953,83.166 L33.715,64.042 C33.203,64.235 32.66,64.337 32.107,64.337 C29.499,64.337 27.381,62.206 27.371,59.586 L27.296,37.693 C27.292,36.422 27.786,35.224 28.689,34.318 C29.585,33.42 30.77,32.925 32.027,32.925 L54.775,32.933 C56.017,32.933 57.192,33.426 58.084,34.321 C58.982,35.221 59.495,36.459 59.491,37.717 L59.421,59.57 C59.403,62.201 57.282,64.337 54.693,64.337 C54.129,64.337 53.581,64.232 53.066,64.033 L51.834,83.147 C51.667,85.674 49.542,87.652 46.995,87.652 L46.995,87.652 Z M35.825,58.573 L37.407,83.008 C37.487,84.254 38.513,85.193 39.794,85.193 L46.995,85.193 C48.272,85.193 49.297,84.245 49.379,82.988 L50.966,58.39 L52.957,60.972 C53.4,61.548 54.028,61.878 54.68,61.878 C55.914,61.878 56.953,60.815 56.962,59.558 L57.031,37.71 C57.033,37.101 56.782,36.498 56.343,36.057 C55.916,35.628 55.358,35.392 54.775,35.392 L32.039,35.385 C31.429,35.385 30.862,35.622 30.431,36.055 C29.993,36.494 29.753,37.072 29.755,37.685 L29.831,59.577 C29.836,60.846 30.85,61.878 32.093,61.878 C32.76,61.878 33.394,61.56 33.847,61.004 L35.825,58.573 L35.825,58.573 Z" id="Fill-1"></path>
                    <path d="M43.396,33.057 C37.379,33.057 32.484,28.161 32.484,22.144 C32.484,16.127 37.379,11.232 43.396,11.232 C49.413,11.232 54.308,16.127 54.308,22.144 C54.308,28.161 49.413,33.057 43.396,33.057 L43.396,33.057 Z M43.396,13.691 C38.735,13.691 34.944,17.483 34.944,22.144 C34.944,26.805 38.735,30.597 43.396,30.597 C48.057,30.597 51.849,26.805 51.849,22.144 C51.849,17.483 48.057,13.691 43.396,13.691 L43.396,13.691 Z" id="Fill-2"></path>
                    <path d="M15.801,60.61 L10.143,60.61 C8,60.61 6.213,58.955 6.076,56.842 L5.125,42.158 C4.794,42.25 4.451,42.298 4.103,42.298 C1.909,42.298 0.126,40.505 0.119,38.301 L0.06,21.103 C0.057,20.033 0.474,19.025 1.234,18.264 C1.987,17.509 2.983,17.093 4.04,17.093 L21.82,17.098 L21.91,18.328 L21.91,17.098 C22.955,17.098 23.944,17.513 24.695,18.265 C25.45,19.02 25.882,20.06 25.88,21.117 L25.823,38.288 C25.809,40.499 24.026,42.296 21.847,42.296 C21.492,42.296 21.144,42.246 20.81,42.151 L19.866,56.826 C19.723,58.949 17.938,60.61 15.801,60.61 L15.801,60.61 Z M7.242,36.814 L8.531,56.683 C8.585,57.52 9.278,58.151 10.143,58.151 L15.801,58.151 C16.662,58.151 17.355,57.512 17.412,56.665 L18.699,36.657 L20.689,39.224 C20.991,39.613 21.41,39.836 21.838,39.836 C22.664,39.836 23.359,39.122 23.364,38.276 L23.42,21.111 C23.421,20.704 23.251,20.3 22.954,20.003 C22.668,19.716 22.297,19.558 21.91,19.558 L4.05,19.552 C3.641,19.552 3.263,19.712 2.974,20.001 C2.68,20.296 2.518,20.686 2.519,21.096 L2.578,38.293 C2.581,39.13 3.275,39.838 4.093,39.838 C4.532,39.838 4.966,39.619 5.264,39.251 L7.242,36.814 L7.242,36.814 Z" id="Fill-3"></path>
                    <path d="M12.971,17.722 C8.099,17.722 4.136,13.758 4.136,8.886 C4.136,4.014 8.099,0.05 12.971,0.05 C17.843,0.05 21.806,4.014 21.806,8.886 C21.806,13.758 17.843,17.722 12.971,17.722 L12.971,17.722 Z M12.971,2.51 C9.455,2.51 6.595,5.37 6.595,8.886 C6.595,12.402 9.455,15.262 12.971,15.262 C16.486,15.262 19.347,12.402 19.347,8.886 C19.347,5.37 16.486,2.51 12.971,2.51 L12.971,2.51 Z" id="Fill-4"></path>
                    <path d="M76.648,60.61 L70.988,60.61 C68.852,60.61 67.067,58.949 66.925,56.829 L65.98,42.152 C65.648,42.247 65.304,42.296 64.953,42.296 C62.761,42.296 60.978,40.499 60.967,38.29 L60.912,21.119 C60.907,20.065 61.336,19.025 62.089,18.268 C62.839,17.514 63.83,17.098 64.877,17.098 L64.877,18.328 L64.946,17.098 L82.739,17.093 C83.804,17.093 84.8,17.508 85.553,18.263 C86.312,19.025 86.729,20.033 86.727,21.102 L86.67,38.301 C86.662,40.505 84.879,42.298 82.695,42.298 C82.343,42.298 81.997,42.25 81.664,42.158 L80.714,56.842 C80.573,58.991 78.824,60.61 76.648,60.61 L76.648,60.61 Z M68.091,36.654 L69.379,56.668 C69.435,57.512 70.127,58.151 70.988,58.151 L76.648,58.151 C77.512,58.151 78.204,57.519 78.26,56.681 L79.545,36.813 L81.524,39.251 C81.823,39.619 82.256,39.838 82.686,39.838 C83.514,39.838 84.207,39.13 84.21,38.293 L84.267,21.095 C84.268,20.685 84.107,20.296 83.812,20 C83.524,19.712 83.146,19.552 82.746,19.552 L64.877,19.558 C64.489,19.558 64.118,19.716 63.832,20.003 C63.537,20.299 63.37,20.702 63.372,21.109 L63.427,38.279 C63.431,39.122 64.126,39.836 64.943,39.836 C65.381,39.836 65.799,39.614 66.101,39.224 L68.091,36.654 L68.091,36.654 Z" id="Fill-5"></path>
                    <path d="M73.818,17.722 C68.946,17.722 64.982,13.758 64.982,8.886 C64.982,4.014 68.946,0.05 73.818,0.05 C78.69,0.05 82.653,4.014 82.653,8.886 C82.653,13.758 78.69,17.722 73.818,17.722 L73.818,17.722 Z M73.818,2.51 C70.302,2.51 67.441,5.37 67.441,8.886 C67.441,12.402 70.302,15.262 73.818,15.262 C77.333,15.262 80.194,12.402 80.194,8.886 C80.194,5.37 77.333,2.51 73.818,2.51 L73.818,2.51 Z" id="Fill-6"></path>
                </g>
            </g>
        </g>
    </g>
</svg>