<?xml version="1.0" encoding="UTF-8" standalone="no"?>
<svg width="73px" height="70px" viewBox="0 0 73 70" version="1.1" xmlns="http://www.w3.org/2000/svg" xmlns:xlink="http://www.w3.org/1999/xlink" xmlns:sketch="http://www.bohemiancoding.com/sketch/ns">
    <!-- Generator: Sketch 3.3.3 (12072) - http://www.bohemiancoding.com/sketch -->
    <title>ic_plans</title>
    <desc>Created with Sketch.</desc>
    <defs></defs>
    <g id="Features" stroke="none" stroke-width="1" fill="none" fill-rule="evenodd" sketch:type="MSPage">
        <g id="Desktop" sketch:type="MSArtboardGroup" transform="translate(-358.000000, -289.000000)" fill="#F34336">
            <g id="Icons" sketch:type="MSLayerGroup" transform="translate(76.000000, 277.000000)">
                <g id="ic_plans" transform="translate(282.000000, 12.000000)" sketch:type="MSShapeGroup">
                    <path d="M70.839,7.044 C69.816,5.999 68.552,5.461 67.056,5.461 L51.4,5.461 L51.4,2.47 C51.4,1.106 50.344,0.051 48.981,0.051 C47.617,0.051 46.562,1.106 46.562,2.47 L46.562,5.461 L25.935,5.461 L25.935,2.47 C25.935,1.106 24.835,0.051 23.472,0.051 C22.108,0.051 21.052,1.106 21.052,2.47 L21.052,5.461 L5.395,5.461 C3.944,5.461 2.657,5.978 1.613,7.044 C0.59,8.089 0.074,9.331 0.074,10.783 L0.074,63.823 C0.074,65.274 0.59,66.517 1.613,67.562 C2.657,68.628 3.944,69.145 5.395,69.145 L67.056,69.145 C68.552,69.145 69.838,68.628 70.839,67.605 C71.861,66.561 72.378,65.274 72.378,63.823 L72.378,10.783 C72.378,9.331 71.84,8.066 70.839,7.044 L70.839,7.044 Z M67.54,63.823 C67.54,63.999 67.276,64.263 67.056,64.263 L5.395,64.263 C5.176,64.263 4.912,63.999 4.912,63.823 L4.912,28.066 L67.54,28.066 L67.54,63.823 L67.54,63.823 Z M67.54,23.229 L4.912,23.229 L4.912,10.783 C4.912,10.475 5.088,10.343 5.395,10.343 L21.052,10.343 L21.052,11.398 C21.052,12.762 22.108,13.861 23.472,13.861 C24.835,13.861 25.935,12.762 25.935,11.398 L25.935,10.343 L46.562,10.343 L46.562,11.398 C46.562,12.762 47.617,13.861 48.98,13.861 C50.344,13.861 51.399,12.762 51.399,11.398 L51.399,10.343 L67.056,10.343 C67.364,10.343 67.54,10.475 67.54,10.783 L67.54,23.229 L67.54,23.229 Z" id="Fill-15"></path>
                    <path d="M26.022,42.492 L55.182,42.492 C56.545,42.492 57.601,41.393 57.601,40.029 C57.601,38.666 56.545,37.61 55.182,37.61 L26.022,37.61 C24.659,37.61 23.559,38.666 23.559,40.029 C23.559,41.393 24.659,42.492 26.022,42.492" id="Fill-16"></path>
                    <path d="M26.022,54.192 L55.182,54.192 C56.545,54.192 57.601,53.136 57.601,51.773 C57.601,50.409 56.545,49.31 55.182,49.31 L26.022,49.31 C24.659,49.31 23.559,50.409 23.559,51.773 C23.559,53.136 24.659,54.192 26.022,54.192" id="Fill-17"></path>
                    <path d="M14.851,37.611 L19.689,37.611 L19.689,42.493 L14.851,42.493 L14.851,37.611 Z" id="Fill-18"></path>
                    <path d="M14.851,49.31 L19.689,49.31 L19.689,54.192 L14.851,54.192 L14.851,49.31 Z" id="Fill-19"></path>
                </g>
            </g>
        </g>
    </g>
</svg>